<?xml version="1.0" encoding="UTF-8" standalone="no"?>
<!-- Created with Inkscape (http://www.inkscape.org/) -->

<svg
   xmlns:dc="http://purl.org/dc/elements/1.1/"
   xmlns:cc="http://creativecommons.org/ns#"
   xmlns:rdf="http://www.w3.org/1999/02/22-rdf-syntax-ns#"
   xmlns:svg="http://www.w3.org/2000/svg"
   xmlns="http://www.w3.org/2000/svg"
   xmlns:sodipodi="http://sodipodi.sourceforge.net/DTD/sodipodi-0.dtd"
   xmlns:inkscape="http://www.inkscape.org/namespaces/inkscape"
   width="100mm"
   height="100mm"
   viewBox="0 0 354.33071 354.33071"
   id="svg2"
   version="1.1"
   inkscape:version="0.91 r13725"
   sodipodi:docname="drawing.svg">
  <defs
     id="defs4" />
  <sodipodi:namedview
     id="base"
     pagecolor="#ffffff"
     bordercolor="#666666"
     borderopacity="1.0"
     inkscape:pageopacity="0.0"
     inkscape:pageshadow="2"
     inkscape:zoom="1.746547"
     inkscape:cx="182.16823"
     inkscape:cy="136.2144"
     inkscape:document-units="px"
     inkscape:current-layer="layer1"
     showgrid="false"
     inkscape:window-width="928"
     inkscape:window-height="1028"
     inkscape:window-x="66"
     inkscape:window-y="24"
     inkscape:window-maximized="0"
     units="mm" />
  <metadata
     id="metadata7">
    <rdf:RDF>
      <cc:Work
         rdf:about="">
        <dc:format>image/svg+xml</dc:format>
        <dc:type
           rdf:resource="http://purl.org/dc/dcmitype/StillImage" />
        <dc:title></dc:title>
      </cc:Work>
    </rdf:RDF>
  </metadata>
  <g
     inkscape:label="Layer 1"
     inkscape:groupmode="layer"
     id="layer1"
     transform="translate(0,-698.0315)">
    <g
       style="font-style:normal;font-weight:normal;font-size:40px;line-height:125%;font-family:sans-serif;letter-spacing:0px;word-spacing:0px;fill:#000000;fill-opacity:1;stroke:none;stroke-width:1px;stroke-linecap:butt;stroke-linejoin:miter;stroke-opacity:1"
       id="flowRoot3336"
       transform="matrix(1.5568383,0,0,4.682378,-27.754271,177.53645)">
      <path
         d="m 261.51562,147.55469 0,87.8125 -9.60546,-21.44531 -13.85157,-7.09961 -21.625,23.47461 -4.96289,36.91796 -23.63476,-7.20117 8.93164,-49.27929 -12.74024,0 -8.21875,45.61523 -31.00195,-9.44531 -6.51562,-36.16992 -12.74024,0 5.95313,32.11718 -45.808598,-13.95703 0,-72.21094 -13.197265,0 0,216.34375 60.697263,0 0,-24.63281 -47.499998,0 0,-101.50781 49.048828,13.45312 20.4043,110.08008 -2.15625,12.17188 -6.07617,24.63281 -7.71094,5.2168 -7.05469,0 0,22.31445 9.60352,0 12.9375,-8.83789 9.92968,-37.82031 20.64453,-113.90235 24.36719,6.68164 -1.49804,11.14844 8.29882,61.73047 21.625,23.47461 13.85157,-6.95703 9.60546,-21.58985 0,24.34375 12.02149,0 0,-74.62304 24.76172,6.79101 0,67.83203 12.02148,0 0,-64.53515 22.72266,6.23047 -0.14844,0.74218 -2.05859,10.32422 2.36914,23.43555 4.23047,14.09375 8.95117,6.95508 8.95117,6.95703 7.51367,-3.47852 7.51367,-3.47851 5.12891,-10.93946 5.12891,-10.93945 0,12.31641 0,12.3164 6.00976,0 6.01172,0 0,-46.29687 0,-46.29688 0.48047,-22.24804 -8.32031,-33.10547 -5.55078,-6.84766 -5.54883,-6.8457 -6.3086,-2.2832 -6.31054,-2.28125 -6.04297,1.44921 -6.04297,1.44727 -6.40234,4.20313 -6.4043,4.20312 0,12.31641 0,12.3164 5.7168,-5 5.71679,-4.99804 6.10938,-1.66602 6.10937,-1.66797 7.64453,5.07227 7.64454,5.07226 5.75585,16.19922 -0.26757,12.20117 0,1.30469 0,1.30469 -8.42969,0 -8.42774,0 -11.65624,3.48047 -13.04102,10.42968 -2.05859,10.32422 -2,10.03907 -24.68946,-7.52149 0,-86.59765 -12.02148,0 0,82.93554 -24.76172,-7.54492 0,-138.57031 -12.02149,0 z m 36.78321,0 0,33.76367 12.02148,0 0,-33.76367 -12.02148,0 z M 241,229.13672 l 15.02734,16.80859 4.30664,36.15625 -37.27929,-11.35742 2.91797,-24.79883 L 241,229.13672 Z m -93.12305,34.80469 25.31446,6.9414 -12.03321,66.78711 -13.28125,-73.72851 z m 73.60157,20.18554 39.68359,10.88282 L 256.02734,338.25 241,354.91406 225.97266,338.25 l -5.42383,-46.22461 0.92969,-7.89844 z m 147.1875,7.31836 5.97851,0 5.97852,0 0,2.97071 0,2.9707 -2.96875,20.46094 -31.28907,-9.53321 0.70704,-3.17578 1.40429,-6.30273 10.67969,-6.31836 9.50977,-1.07227 z m -24.41407,26.35157 32.13086,8.8125 -1.83593,12.65429 -8.00391,7.82617 -8.00391,7.82422 -5.75,-4.1289 -5.75,-4.13086 -2.71484,-8.49805 -1.4668,-14.10742 1.39453,-6.25195 z"
         transform="matrix(0.29893589,0,0,0.13478681,50.825779,127.66697)"
         id="path3364"
         inkscape:connector-curvature="0" />
    </g>
    <path
       style="fill:#0000ff;fill-rule:evenodd;stroke:#000000;stroke-width:0.5419606px;stroke-linecap:butt;stroke-linejoin:miter;stroke-opacity:1"
       d="m 280.53386,834.58414 0,91.42158 69.54744,0 0,-91.42158 -69.54744,0 z m 18.65215,23.8483 31.17691,0 0,40.83315 -31.17691,0 0,-40.83315 z"
       id="rect3421"
       inkscape:connector-curvature="0" />
  </g>
</svg>
